<svg xmlns="http://www.w3.org/2000/svg" version="1.1" xmlns:xlink="http://www.w3.org/1999/xlink" xmlns:svgjs="http://svgjs.dev/svgjs" width="100%" height="100%" viewBox="0 0 1000 600"><rect width="1000" height="600" x="0" y="0" fill="#152046"/><g><circle r="166.66666666666666" cx="323.263193766276" cy="345.4854103152056" fill="#aa8f76" transform="matrix(0.798229759211083,0,0,0.798229759211083,0,24.22327653847998)"/><path d="M304.61171479076546 418.0642074802945L219.47657770509116 418.0642074802945L221.50360477855958 401.84799089254693L221.50360477855958 292.3885289252514L219.47657770509116 276.17231233750385L240.76036197650973 276.17231233750385L238.7333349030413 292.3885289252514L238.7333349030413 402.2421350457214L292.44955234995484 402.2421350457214L304.61171479076546 400.2151079722529L304.61171479076546 418.0642074802945ZM381.6387435825661 420.48537870693735L381.6387435825661 420.48537870693735Q376.17703174572057 420.48537870693735 371.61622083041664 419.6970904005884Q367.0554099151126 418.88064894044146 364.2119413814971 418.0642074802945L364.2119413814971 418.0642074802945L343.9416706468128 401.2286215089871L343.9416706468128 388.05294553144233Q351.4304095571267 397.9910088221973 359.96081515797306 401.9606035077396Q368.46306760502125 405.9020450394838 378.4011308957762 405.9020450394838L378.4011308957762 405.9020450394838Q388.7333383397056 405.9020450394838 395.71532048165244 402.04506296913416Q402.7254557773974 398.1880808987845 406.16014054077453 389.68582845173637Q409.6229784579498 381.1835760046881 409.6229784579498 367.1914585669963L409.6229784579498 367.1914585669963Q409.6229784579498 347.3153319854864 401.90901431725047 337.0957371567497Q394.19505017655115 326.84798917421483 377.387617359042 326.84798917421483L377.387617359042 326.84798917421483Q365.6195990714058 326.84798917421483 357.11734662435765 331.2961874743261Q348.5869410235113 335.7725389282356 343.1252291866658 341.6565480720536L343.1252291866658 341.6565480720536L343.1252291866658 330.2826739375919L364.40901345808436 314.8828988099914Q368.265995528434 313.67231319666996 372.3200496753709 312.9684843517157Q376.3741038223078 312.2646555067613 380.82230212241905 312.2646555067613L380.82230212241905 312.2646555067613Q393.40676187020233 312.2646555067613 403.82342877552617 318.1205114967812Q414.26824883464826 324.00452064059937 420.6590147468335 335.9696110048228Q427.04978065901867 347.93470136904614 427.04978065901867 365.98087295367486L427.04978065901867 365.98087295367486Q427.04978065901867 381.97186431103705 421.6725282835677 394.359251982233Q416.2952759081167 406.7184864996308 406.16014054077453 413.61600918018314Q396.0250051734323 420.48537870693735 381.6387435825661 420.48537870693735ZM348.1927968703369 418.0642074802945L332.1736523591766 418.0642074802945L334.200679432645 401.84799089254693L334.200679432645 286.7015918580205L332.1736523591766 270.48537527027304L353.260364554008 270.48537527027304L351.2333374805395 286.7015918580205L351.2333374805395 407.53492795977786L348.1927968703369 418.0642074802945Z " fill="#152046" transform="matrix(0.798229759211083,0,0,0.798229759211083,0,24.22327653847998)"/><path d="M639.7149908332701 385.6772913149183L573.2631835518363 385.6772913149183L574.8453694394894 373.01980421369285L574.8453694394894 287.58176628042065L573.2631835518363 274.9242791791951L589.8761353721948 274.9242791791951L588.2939494845416 287.58176628042065L588.2939494845416 373.32745146962543L630.2218755073511 373.32745146962543L639.7149908332701 371.74526558197215L639.7149908332701 385.6772913149183ZM677.6874521369467 291.69105462751986L677.6874521369467 291.69105462751986Q673.88581104578 291.69105462751986 671.2048849583676 289.25185138405453Q668.5019840669602 286.79067333659407 668.5019840669602 282.52756136152846L668.5019840669602 282.52756136152846Q668.5019840669602 278.24247458246776 671.2048849583676 275.80327133900244Q673.88581104578 273.3420932915419 677.6874521369467 273.3420932915419L677.6874521369467 273.3420932915419Q681.4890932281135 273.3420932915419 684.1700193155258 275.80327133900244Q686.8729202069333 278.24247458246776 686.8729202069333 282.52756136152846L686.8729202069333 282.52756136152846Q686.8729202069333 286.79067333659407 684.1700193155258 289.25185138405453Q681.4890932281135 291.69105462751986 677.6874521369467 291.69105462751986ZM688.4551060945864 385.6772913149183L671.9959779021942 385.6772913149183L673.5781637898475 373.01980421369285L673.5781637898475 315.75346500224543L657.1190355974552 315.75346500224543L657.1190355974552 304.9858110446057L688.4551060945864 304.9858110446057L686.8729202069333 317.6432981458312L686.8729202069333 373.01980421369285L688.4551060945864 385.6772913149183ZM752.6874581725069 387.56712445850405L752.6874581725069 387.56712445850405Q748.4023713934462 387.56712445850405 744.8424531462265 386.9518299466389Q741.2825348990068 386.3145606307786 739.0850544994885 385.6772913149183L739.0850544994885 385.6772913149183L723.2631956229566 372.53635852579873L723.2631956229566 362.252150256053Q729.1084934856754 370.0092560663527 735.7448842922207 373.1077034296735Q742.4032499027612 376.1841759889992 750.1603557130609 376.1841759889992L750.1603557130609 376.1841759889992Q758.2251087792931 376.1841759889992 763.6748601700984 373.17362784165914Q769.1465863648991 370.163079694319 771.8275124523115 363.52668888777373Q774.5084385397238 356.89029808122837 774.5084385397238 345.96882049562237L774.5084385397238 345.96882049562237Q774.5084385397238 330.45460887502304 768.5093170490388 322.47775502477145Q762.4882207543586 314.47892637052485 749.3692627692342 314.47892637052485L749.3692627692342 314.47892637052485Q740.1837946992476 314.47892637052485 733.5474038927024 317.95094540176376Q726.8890382821619 321.4449392369979 722.6259263070963 326.03767327199114L722.6259263070963 326.03767327199114L722.6259263070963 317.1598524579372L739.2388781274548 305.139634672572Q742.2494262747948 304.19471810077914 745.4137980501013 303.6453480008995Q748.5781698254077 303.09597790102 752.0501888566466 303.09597790102L752.0501888566466 303.09597790102Q761.8509514384982 303.09597790102 770.0036037207112 307.66673713201806Q778.1562560029242 312.2594711670114 783.1445365098308 321.5987628649642Q788.1328170167374 330.93805456291705 788.1328170167374 345.0239039238295L788.1328170167374 345.0239039238295Q788.1328170167374 357.5055925930935 783.9356294536574 367.17450635097407Q779.7384418905774 376.8214453048595 771.8275124523115 382.2052722836794Q763.9165830140455 387.56712445850405 752.6874581725069 387.56712445850405ZM726.5813910262293 385.6772913149183L714.0777275529701 385.6772913149183L715.6599134406232 373.01980421369285L715.6599134406232 283.1428558733936L714.0777275529701 270.4853687721681L730.5368557453622 270.4853687721681L728.9546698577091 283.1428558733936L728.9546698577091 377.4587146207198L726.5813910262293 385.6772913149183ZM825.1383869446258 385.6772913149183L808.7012335562288 385.6772913149183L810.2834194438819 373.01980421369285L810.2834194438819 317.6432981458312L808.7012335562288 304.9858110446057L819.293089081907 304.9858110446057L821.8201915413532 314.32510274255856L823.5562010569727 314.32510274255856L823.5562010569727 373.01980421369285L825.1383869446258 385.6772913149183ZM820.2380056536999 333.6189806503294L820.2380056536999 333.6189806503294L820.2380056536999 317.0060288299709L834.1700313866461 305.139634672572Q839.8615056213985 303.09597790102 845.8826019160788 303.09597790102L845.8826019160788 303.09597790102Q848.563528003491 303.09597790102 851.4202525228649 303.4915243729332Q854.2550022382435 303.88707084484656 857.2655503855835 305.139634672572L857.2655503855835 305.139634672572L857.2655503855835 315.75346500224543L854.7384479261375 317.3356508898986Q852.03554703473 316.3687595141106 849.5963437912646 316.061112258178Q847.1351657438042 315.75346500224543 845.0915089722521 315.75346500224543L845.0915089722521 315.75346500224543Q835.7522172742993 315.75346500224543 829.8849446075853 320.5659470771906Q824.0396467448667 325.40040395613084 820.2380056536999 333.6189806503294ZM939.6930401715157 385.6772913149183L927.1893766982564 385.6772913149183L924.8160978667768 377.28291618875835L924.8160978667768 334.25624996618967Q924.8160978667768 327.9275064155769 923.0800883511572 323.5764952245306Q921.3440788355377 319.22548403348435 916.2898739166457 316.8522052020046Q911.2136941937583 314.47892637052485 901.2591079839403 314.47892637052485L901.2591079839403 314.47892637052485Q895.3918353172264 314.47892637052485 890.4035548103199 315.577666570284Q885.4372491074084 316.6983815740383 880.8445150724151 319.70892972137847L880.8445150724151 319.70892972137847L878.3174126129691 318.1267438337253L878.3174126129691 306.7218205602252Q885.261450675447 304.5023653567117 891.370446186108 303.7991716288658Q897.4574668927737 303.09597790102 902.665495439632 303.09597790102L902.665495439632 303.09597790102Q916.443697544612 303.09597790102 924.1129041389308 306.7218205602252Q931.7821107332497 310.3696380234255 934.9464825085561 317.40157530188424Q938.1108542838625 324.45548738433797 938.1108542838625 334.7396956540837L938.1108542838625 334.7396956540837L938.1108542838625 373.01980421369285L939.6930401715157 385.6772913149183ZM900.4680150401136 387.56712445850405L900.4680150401136 387.56712445850405Q893.5020021736407 387.56712445850405 886.6898129351339 385.2817448430051Q879.8995985006222 382.996365227506 875.3727888776145 377.3708154047391Q870.867954058602 371.74526558197215 870.867954058602 361.94450300012045L870.867954058602 361.94450300012045Q870.867954058602 354.3412208177871 873.7246785779759 349.287015898895Q876.5594282933545 344.2328109800029 881.3938851722946 341.37608646062904Q886.2283420512351 338.5193619412553 892.2274635419201 337.33272252551535Q898.2485598366002 336.1460831097754 904.5773033872131 336.1460831097754L904.5773033872131 336.1460831097754Q908.3789444783797 336.1460831097754 911.6092406656716 336.47570516970325Q914.8615116569588 336.7833524256357 918.0258834322651 337.5744453694623L918.0258834322651 337.5744453694623L926.2444601264637 343.4417180361762L926.2444601264637 350.71537815858187Q922.1351717793643 348.4959229550684 917.4765133323856 347.61693079526106Q912.7958800814115 346.75991343944895 906.7967585907265 346.75991343944895L906.7967585907265 346.75991343944895Q895.7214573771541 346.75991343944895 889.942083926421 349.9902096267408Q884.1627104756878 353.2424806180279 884.1627104756878 362.09832662808674L884.1627104756878 362.09832662808674Q884.1627104756878 369.3719867504924 888.4258224507535 372.9319049977121Q892.7109092298141 376.49182324493177 902.2040245557332 376.49182324493177L902.2040245557332 376.49182324493177Q912.0047871375849 376.49182324493177 917.7841605883181 373.32745146962543Q923.5635340390512 370.163079694319 926.7279058143577 365.7461440912872L926.7279058143577 365.7461440912872L929.892277589664 372.86598058572656L914.7076880289925 385.6772913149183Q911.543316253686 386.4683842587449 907.8954987904856 387.01775435862453Q904.2476813272852 387.56712445850405 900.4680150401136 387.56712445850405ZM977.028232159332 385.6772913149183L960.5910787709349 385.6772913149183L962.1732646585881 373.01980421369285L962.1732646585881 317.6432981458312L960.5910787709349 304.9858110446057L971.1829342966132 304.9858110446057L973.7100367560593 314.32510274255856L975.4460462716787 314.32510274255856L975.4460462716787 373.01980421369285L977.028232159332 385.6772913149183ZM972.1278508684061 333.6189806503294L972.1278508684061 333.6189806503294L972.1278508684061 317.0060288299709L986.0598766013522 305.139634672572Q991.7513508361046 303.09597790102 997.7724471307849 303.09597790102L997.7724471307849 303.09597790102Q1000.4533732181972 303.09597790102 1003.310097737571 303.4915243729332Q1006.1448474529496 303.88707084484656 1009.1553956002897 305.139634672572L1009.1553956002897 305.139634672572L1009.1553956002897 315.75346500224543L1006.6282931408437 317.3356508898986Q1003.9253922494361 316.3687595141106 1001.4861890059708 316.061112258178Q999.0250109585103 315.75346500224543 996.9813541869582 315.75346500224543L996.9813541869582 315.75346500224543Q987.6420624890054 315.75346500224543 981.7747898222915 320.5659470771906Q975.9294919595727 325.40040395613084 972.1278508684061 333.6189806503294ZM1028.625071940022 408.77281031385587L1030.5149050836078 407.1906244262027Q1031.7894437153284 408.1355409979956 1033.1299067590346 408.4651630579233Q1034.4703698027406 408.77281031385587 1035.7449084344614 408.77281031385587L1035.7449084344614 408.77281031385587Q1039.3707510936665 408.77281031385587 1042.4691984569874 406.79507795428935Q1045.545671016313 404.81734559472284 1047.1278569039664 400.70805724762363L1047.1278569039664 400.70805724762363L1051.7205909389595 388.35821740233064L1018.3408636702763 304.9858110446057L1033.525453230948 304.9858110446057L1036.9974722621869 316.6983815740383L1056.3133249739528 366.99870791901265L1057.7197124296445 376.0303523610329L1058.6866038054327 376.0303523610329L1060.0929912611243 366.99870791901265L1077.4970360253094 316.6983815740383L1080.9910298605437 304.9858110446057L1096.175619421215 304.9858110446057L1058.2031581175386 404.50969833879026Q1055.9837029140251 410.35499620150904 1052.3578602548198 413.8489900367431Q1048.7100427916193 417.3210090679821 1044.446930816554 418.9031949556353Q1040.1618440374932 420.48538084328845 1035.7449084344614 420.48538084328845L1035.7449084344614 420.48538084328845Q1033.525453230948 420.48538084328845 1031.8553681273138 420.0898343713752Q1030.2072578276752 419.69428789946187 1028.625071940022 419.0570185836016L1028.625071940022 419.0570185836016L1028.625071940022 408.77281031385587Z " fill="#aa8f76" transform="matrix(0.798229759211083,0,0,0.798229759211083,0,24.22327653847998)"/></g></svg>